<?xml version="1.0" encoding="UTF-8" standalone="no"?>
<!DOCTYPE svg PUBLIC "-//W3C//DTD SVG 1.1//EN"
 "http://www.w3.org/Graphics/SVG/1.1/DTD/svg11.dtd">
<!-- Generated by graphviz version 2.42.3 (20191010.1750)
 -->
<!-- Title: %3 Pages: 1 -->
<svg width="303pt" height="333pt"
 viewBox="0.00 0.00 303.08 333.08" xmlns="http://www.w3.org/2000/svg" xmlns:xlink="http://www.w3.org/1999/xlink">
<g id="graph0" class="graph" transform="scale(1 1) rotate(0) translate(4 329.08)">
<title>%3</title>
<polygon fill="white" stroke="transparent" points="-4,4 -4,-329.08 299.08,-329.08 299.08,4 -4,4"/>
<!-- X1 -->
<g id="node1" class="node">
<title>X1</title>
<polygon fill="lightgray" stroke="black" points="228.54,-309.54 201.54,-309.54 201.54,-292.54 228.54,-292.54 228.54,-309.54"/>
<text text-anchor="middle" x="215.04" y="-298.34" font-family="Times,serif" font-size="9.00">X1</text>
</g>
<!-- OUTPUT -->
<g id="node3" class="node">
<title>OUTPUT</title>
<ellipse fill="lightblue" stroke="black" cx="172.04" cy="-120.5" rx="36.33" ry="36.33"/>
<text text-anchor="middle" x="172.04" y="-117.8" font-family="Times,serif" font-size="9.00">OUTPUT</text>
</g>
<!-- X1&#45;&gt;OUTPUT -->
<g id="edge4" class="edge">
<title>X1&#45;&gt;OUTPUT</title>
<path fill="none" stroke="red" stroke-width="0.45" d="M217.29,-292.28C222.11,-274.32 232.13,-228.67 221.04,-192.91 217.03,-179.98 209.78,-167.31 202.06,-156.32"/>
<polygon fill="red" stroke="red" stroke-width="0.45" points="204.87,-154.23 196.12,-148.26 199.24,-158.39 204.87,-154.23"/>
</g>
<!-- 361 -->
<g id="node6" class="node">
<title>361</title>
<ellipse fill="white" stroke="black" cx="191.04" cy="-216.96" rx="20.72" ry="20.72"/>
<text text-anchor="middle" x="191.04" y="-214.26" font-family="Times,serif" font-size="9.00">361</text>
</g>
<!-- X1&#45;&gt;361 -->
<g id="edge2" class="edge">
<title>X1&#45;&gt;361</title>
<path fill="none" stroke="green" stroke-width="0.62" d="M212.83,-292.46C209.81,-282.14 204.24,-263.09 199.48,-246.83"/>
<polygon fill="green" stroke="green" stroke-width="0.62" points="202.83,-245.79 196.66,-237.17 196.11,-247.75 202.83,-245.79"/>
</g>
<!-- X2 -->
<g id="node2" class="node">
<title>X2</title>
<polygon fill="lightgray" stroke="black" points="129.54,-309.54 102.54,-309.54 102.54,-292.54 129.54,-292.54 129.54,-309.54"/>
<text text-anchor="middle" x="116.04" y="-298.34" font-family="Times,serif" font-size="9.00">X2</text>
</g>
<!-- X2&#45;&gt;OUTPUT -->
<g id="edge1" class="edge">
<title>X2&#45;&gt;OUTPUT</title>
<path fill="none" stroke="red" stroke-width="1.55" d="M118.45,-292.37C125.23,-270.76 144.86,-208.15 158.39,-165.03"/>
<polygon fill="red" stroke="red" stroke-width="1.55" points="161.77,-165.93 161.43,-155.34 155.09,-163.84 161.77,-165.93"/>
</g>
<!-- 3074 -->
<g id="node4" class="node">
<title>3074</title>
<ellipse fill="white" stroke="black" cx="90.04" cy="-216.96" rx="24.08" ry="24.08"/>
<text text-anchor="middle" x="90.04" y="-214.26" font-family="Times,serif" font-size="9.00">3074</text>
</g>
<!-- X2&#45;&gt;3074 -->
<g id="edge6" class="edge">
<title>X2&#45;&gt;3074</title>
<path fill="none" stroke="red" stroke-width="0.26" stroke-dasharray="1,5" d="M113.64,-292.46C110.59,-282.83 105.12,-265.57 100.22,-250.09"/>
<polygon fill="red" stroke="red" stroke-width="0.26" points="103.47,-248.75 97.11,-240.28 96.8,-250.87 103.47,-248.75"/>
</g>
<!-- X2&#45;&gt;361 -->
<g id="edge5" class="edge">
<title>X2&#45;&gt;361</title>
<path fill="none" stroke="green" stroke-width="1.05" d="M122.96,-292.46C133.66,-280.76 154.61,-257.83 170.46,-240.48"/>
<polygon fill="green" stroke="green" stroke-width="1.05" points="173.17,-242.71 177.33,-232.96 168,-237.98 173.17,-242.71"/>
</g>
<!-- 4301 -->
<g id="node7" class="node">
<title>4301</title>
<ellipse fill="white" stroke="black" cx="24.04" cy="-216.96" rx="24.08" ry="24.08"/>
<text text-anchor="middle" x="24.04" y="-214.26" font-family="Times,serif" font-size="9.00">4301</text>
</g>
<!-- X2&#45;&gt;4301 -->
<g id="edge8" class="edge">
<title>X2&#45;&gt;4301</title>
<path fill="none" stroke="green" stroke-width="0.42" d="M107.55,-292.46C94.41,-280.74 68.65,-257.76 49.2,-240.4"/>
<polygon fill="green" stroke="green" stroke-width="0.42" points="51.35,-237.63 41.56,-233.59 46.69,-242.86 51.35,-237.63"/>
</g>
<!-- 5091 -->
<g id="node5" class="node">
<title>5091</title>
<ellipse fill="white" stroke="black" cx="108.04" cy="-24.04" rx="24.08" ry="24.08"/>
<text text-anchor="middle" x="108.04" y="-21.34" font-family="Times,serif" font-size="9.00">5091</text>
</g>
<!-- 3074&#45;&gt;5091 -->
<g id="edge7" class="edge">
<title>3074&#45;&gt;5091</title>
<path fill="none" stroke="red" stroke-width="0.35" d="M92.21,-192.93C95.38,-159.39 101.27,-96.9 104.9,-58.35"/>
<polygon fill="red" stroke="red" stroke-width="0.35" points="108.41,-58.44 105.86,-48.15 101.44,-57.78 108.41,-58.44"/>
</g>
<!-- 5787 -->
<g id="node9" class="node">
<title>5787</title>
<ellipse fill="white" stroke="black" cx="56.04" cy="-120.5" rx="24.08" ry="24.08"/>
<text text-anchor="middle" x="56.04" y="-117.8" font-family="Times,serif" font-size="9.00">5787</text>
</g>
<!-- 3074&#45;&gt;5787 -->
<g id="edge9" class="edge">
<title>3074&#45;&gt;5787</title>
<path fill="none" stroke="green" stroke-width="0.29" d="M82.16,-194.05C77.74,-181.77 72.15,-166.25 67.28,-152.71"/>
<polygon fill="green" stroke="green" stroke-width="0.29" points="70.56,-151.51 63.88,-143.29 63.98,-153.88 70.56,-151.51"/>
</g>
<!-- 361&#45;&gt;OUTPUT -->
<g id="edge3" class="edge">
<title>361&#45;&gt;OUTPUT</title>
<path fill="none" stroke="green" stroke-width="1.6" d="M187.1,-196.38C185.34,-187.62 183.18,-176.9 181.06,-166.33"/>
<polygon fill="green" stroke="green" stroke-width="1.6" points="184.45,-165.43 179.05,-156.32 177.59,-166.81 184.45,-165.43"/>
</g>
<!-- 361&#45;&gt;5091 -->
<g id="edge11" class="edge">
<title>361&#45;&gt;5091</title>
<path fill="none" stroke="red" stroke-width="0.35" d="M201.51,-198.85C216.22,-172.39 238.89,-120.77 217.04,-84.08 200.81,-56.82 167.12,-41.38 141.47,-33.18"/>
<polygon fill="red" stroke="red" stroke-width="0.35" points="142.32,-29.79 131.74,-30.29 140.32,-36.5 142.32,-29.79"/>
</g>
<!-- 5391 -->
<g id="node8" class="node">
<title>5391</title>
<ellipse fill="white" stroke="black" cx="271.04" cy="-301.04" rx="24.08" ry="24.08"/>
<text text-anchor="middle" x="271.04" y="-298.34" font-family="Times,serif" font-size="9.00">5391</text>
</g>
<!-- 5787&#45;&gt;5091 -->
<g id="edge10" class="edge">
<title>5787&#45;&gt;5091</title>
<path fill="none" stroke="red" stroke-width="0.41" d="M67.32,-99C74.48,-86.01 83.85,-68.98 91.8,-54.54"/>
<polygon fill="red" stroke="red" stroke-width="0.41" points="95.02,-55.95 96.78,-45.5 88.89,-52.57 95.02,-55.95"/>
</g>
</g>
</svg>
