<?xml version="1.0" encoding="UTF-8" standalone="no"?>
<!DOCTYPE svg PUBLIC "-//W3C//DTD SVG 1.1//EN"
 "http://www.w3.org/Graphics/SVG/1.1/DTD/svg11.dtd">
<!-- Generated by graphviz version 2.42.3 (20191010.1750)
 -->
<!-- Title: %3 Pages: 1 -->
<svg width="160pt" height="339pt"
 viewBox="0.00 0.00 160.08 338.98" xmlns="http://www.w3.org/2000/svg" xmlns:xlink="http://www.w3.org/1999/xlink">
<g id="graph0" class="graph" transform="scale(1 1) rotate(0) translate(4 334.98)">
<title>%3</title>
<polygon fill="white" stroke="transparent" points="-4,4 -4,-334.98 156.08,-334.98 156.08,4 -4,4"/>
<!-- X1 -->
<g id="node1" class="node">
<title>X1</title>
<polygon fill="lightgray" stroke="black" points="51.08,-315.67 24.09,-315.67 24.09,-298.67 51.08,-298.67 51.08,-315.67"/>
<text text-anchor="middle" x="37.59" y="-304.47" font-family="Times,serif" font-size="9.00">X1</text>
</g>
<!-- 2444 -->
<g id="node4" class="node">
<title>2444</title>
<ellipse fill="white" stroke="black" cx="37.59" cy="-132.87" rx="24.08" ry="24.08"/>
<text text-anchor="middle" x="37.59" y="-130.17" font-family="Times,serif" font-size="9.00">2444</text>
</g>
<!-- X1&#45;&gt;2444 -->
<g id="edge2" class="edge">
<title>X1&#45;&gt;2444</title>
<path fill="none" stroke="red" stroke-width="0.44" stroke-dasharray="1,5" d="M31.46,-298.37C23.44,-287.62 9.8,-267.3 4.59,-247.36 -1.53,-223.95 -1.52,-216.33 4.59,-192.91 7.43,-181.98 12.8,-170.92 18.4,-161.38"/>
<polygon fill="red" stroke="red" stroke-width="0.44" points="21.46,-163.09 23.76,-152.75 15.51,-159.4 21.46,-163.09"/>
</g>
<!-- 7127 -->
<g id="node6" class="node">
<title>7127</title>
<ellipse fill="white" stroke="black" cx="37.59" cy="-220.14" rx="24.08" ry="24.08"/>
<text text-anchor="middle" x="37.59" y="-217.44" font-family="Times,serif" font-size="9.00">7127</text>
</g>
<!-- X1&#45;&gt;7127 -->
<g id="edge3" class="edge">
<title>X1&#45;&gt;7127</title>
<path fill="none" stroke="green" stroke-width="0.22" d="M37.59,-298.62C37.59,-288.75 37.59,-270.82 37.59,-254.69"/>
<polygon fill="green" stroke="green" stroke-width="0.22" points="41.09,-254.45 37.59,-244.45 34.09,-254.45 41.09,-254.45"/>
</g>
<!-- 10813 -->
<g id="node7" class="node">
<title>10813</title>
<ellipse fill="white" stroke="black" cx="106.59" cy="-220.14" rx="27.45" ry="27.45"/>
<text text-anchor="middle" x="106.59" y="-217.44" font-family="Times,serif" font-size="9.00">10813</text>
</g>
<!-- X1&#45;&gt;10813 -->
<g id="edge5" class="edge">
<title>X1&#45;&gt;10813</title>
<path fill="none" stroke="green" stroke-width="0.49" d="M43.71,-298.62C52.49,-287.8 69.16,-267.26 83.13,-250.05"/>
<polygon fill="green" stroke="green" stroke-width="0.49" points="86.14,-251.89 89.72,-241.92 80.7,-247.48 86.14,-251.89"/>
</g>
<!-- X2 -->
<g id="node2" class="node">
<title>X2</title>
<polygon fill="lightgray" stroke="black" points="152.08,-141.37 125.09,-141.37 125.09,-124.37 152.08,-124.37 152.08,-141.37"/>
<text text-anchor="middle" x="138.59" y="-130.17" font-family="Times,serif" font-size="9.00">X2</text>
</g>
<!-- OUTPUT -->
<g id="node3" class="node">
<title>OUTPUT</title>
<ellipse fill="lightblue" stroke="black" cx="97.59" cy="-36.42" rx="36.33" ry="36.33"/>
<text text-anchor="middle" x="97.59" y="-33.72" font-family="Times,serif" font-size="9.00">OUTPUT</text>
</g>
<!-- X2&#45;&gt;OUTPUT -->
<g id="edge7" class="edge">
<title>X2&#45;&gt;OUTPUT</title>
<path fill="none" stroke="red" stroke-width="0.22" d="M135.23,-124.14C130.94,-114.25 123.17,-96.37 115.81,-79.4"/>
<polygon fill="red" stroke="red" stroke-width="0.22" points="118.97,-77.9 111.78,-70.12 112.55,-80.69 118.97,-77.9"/>
</g>
<!-- 2444&#45;&gt;OUTPUT -->
<g id="edge1" class="edge">
<title>2444&#45;&gt;OUTPUT</title>
<path fill="none" stroke="red" stroke-width="0.37" d="M50.31,-111.84C56.9,-101.47 65.17,-88.44 72.95,-76.2"/>
<polygon fill="red" stroke="red" stroke-width="0.37" points="76.08,-77.79 78.49,-67.47 70.18,-74.04 76.08,-77.79"/>
</g>
<!-- 1107 -->
<g id="node5" class="node">
<title>1107</title>
<ellipse fill="white" stroke="black" cx="92.59" cy="-307.17" rx="23.62" ry="23.62"/>
<text text-anchor="middle" x="92.59" y="-304.47" font-family="Times,serif" font-size="9.00">1107</text>
</g>
<!-- 7127&#45;&gt;2444 -->
<g id="edge4" class="edge">
<title>7127&#45;&gt;2444</title>
<path fill="none" stroke="green" stroke-width="1.26" d="M37.59,-195.84C37.59,-187 37.59,-176.76 37.59,-167.18"/>
<polygon fill="green" stroke="green" stroke-width="1.26" points="41.09,-167.14 37.59,-157.14 34.09,-167.14 41.09,-167.14"/>
</g>
<!-- 10813&#45;&gt;OUTPUT -->
<g id="edge6" class="edge">
<title>10813&#45;&gt;OUTPUT</title>
<path fill="none" stroke="green" stroke-width="0.23" d="M105.28,-192.71C103.86,-164.08 101.57,-117.85 99.86,-83.26"/>
<polygon fill="green" stroke="green" stroke-width="0.23" points="103.33,-82.75 99.34,-72.93 96.34,-83.1 103.33,-82.75"/>
</g>
</g>
</svg>
